<svg class="post-illu" viewBox="0 0 480 260" xmlns="http://www.w3.org/2000/svg" preserveAspectRatio="xMidYMid meet" aria-hidden="true" focusable="false">
  <g fill="none" stroke-linecap="round" stroke-linejoin="round">
    <text x="168" y="70" text-anchor="middle" font-family="'JetBrains Mono',monospace" font-size="12" fill="var(--accent)" stroke="none">now</text>
    <text x="320" y="70" text-anchor="middle" font-family="'JetBrains Mono',monospace" font-size="12" fill="var(--muted)" stroke="none">parked</text>
    <line x1="56" y1="96" x2="168" y2="96" stroke="var(--accent)" stroke-width="3"/>
    <line x1="168" y1="96" x2="424" y2="96" stroke="var(--muted)" stroke-width="2" stroke-dasharray="4 6"/>
    <circle cx="168" cy="96" r="9" fill="var(--accent)" fill-opacity="0.4" stroke="var(--accent)" stroke-width="2"/>
    <circle cx="264" cy="96" r="9" fill="var(--accent)" fill-opacity="0.2" stroke="var(--accent)" stroke-width="2"/>
    <circle cx="376" cy="96" r="9" fill="var(--accent)" fill-opacity="0.2" stroke="var(--accent)" stroke-width="2"/>
    <line x1="264" y1="105" x2="264" y2="138" stroke="var(--muted)" stroke-width="1.6"/>
    <line x1="376" y1="105" x2="376" y2="138" stroke="var(--muted)" stroke-width="1.6"/>
    <rect x="251" y="138" width="26" height="26" rx="6" fill="var(--accent)" fill-opacity="0.15" stroke="var(--accent)" stroke-width="1.6"/>
    <rect x="363" y="138" width="26" height="26" rx="6" fill="var(--accent)" fill-opacity="0.15" stroke="var(--accent)" stroke-width="1.6"/>
    <text x="264" y="186" text-anchor="middle" font-family="'JetBrains Mono',monospace" font-size="12" fill="var(--muted)" stroke="none">+5m</text>
    <text x="376" y="186" text-anchor="middle" font-family="'JetBrains Mono',monospace" font-size="12" fill="var(--muted)" stroke="none">+24h</text>
    <path d="M 168 105 L 168 166" stroke="var(--accent)" stroke-width="2"/>
    <path d="M 168 166 l -5 -9 m 5 9 l 5 -9" stroke="var(--accent)" stroke-width="2"/>
    <rect x="104" y="176" width="128" height="44" rx="10" fill="var(--surface)" stroke="var(--accent)" stroke-width="2"/>
    <text x="168" y="204" text-anchor="middle" font-family="'JetBrains Mono',monospace" font-size="15" fill="var(--accent)" stroke="none">call</text>
  </g>
</svg>
