<svg class="post-illu" viewBox="0 0 480 260" xmlns="http://www.w3.org/2000/svg" preserveAspectRatio="xMidYMid meet" aria-hidden="true" focusable="false">
  <g fill="none" stroke-linecap="round" stroke-linejoin="round">
    <circle cx="130" cy="130" r="46" fill="var(--surface)" stroke="var(--accent)" stroke-width="2"/>
    <circle cx="130" cy="130" r="16" fill="var(--accent)" fill-opacity="0.18" stroke="var(--accent)" stroke-width="2"/>
    <line x1="176.0" y1="130.0" x2="188.0" y2="130.0" stroke="var(--accent)" stroke-width="3"/>
    <line x1="162.5" y1="162.5" x2="171.0" y2="171.0" stroke="var(--accent)" stroke-width="3"/>
    <line x1="130.0" y1="176.0" x2="130.0" y2="188.0" stroke="var(--accent)" stroke-width="3"/>
    <line x1="97.5" y1="162.5" x2="89.0" y2="171.0" stroke="var(--accent)" stroke-width="3"/>
    <line x1="84.0" y1="130.0" x2="72.0" y2="130.0" stroke="var(--accent)" stroke-width="3"/>
    <line x1="97.5" y1="97.5" x2="89.0" y2="89.0" stroke="var(--accent)" stroke-width="3"/>
    <line x1="130.0" y1="84.0" x2="130.0" y2="72.0" stroke="var(--accent)" stroke-width="3"/>
    <line x1="162.5" y1="97.5" x2="171.0" y2="89.0" stroke="var(--accent)" stroke-width="3"/>
    <line x1="196" y1="130" x2="244" y2="130" stroke="var(--accent)" stroke-width="2"/>
    <path d="M 244 130 l -7 -4 m 7 4 l -7 4" stroke="var(--accent)" stroke-width="2"/>
    <rect x="252" y="86" width="180" height="88" rx="10" fill="var(--surface)" stroke="var(--muted)" stroke-width="2"/>
    <rect x="270" y="104" width="140" height="8" rx="3" fill="var(--accent)" fill-opacity="0.4"/>
    <rect x="270" y="120" width="100" height="8" rx="3" fill="var(--accent)" fill-opacity="0.4"/>
    <rect x="270" y="136" width="140" height="8" rx="3" fill="var(--accent)" fill-opacity="0.4"/>
    <rect x="270" y="152" width="100" height="8" rx="3" fill="var(--accent)" fill-opacity="0.4"/>
  </g>
</svg>
