<svg class="post-illu" viewBox="0 0 480 260" xmlns="http://www.w3.org/2000/svg" preserveAspectRatio="xMidYMid meet" aria-hidden="true" focusable="false">
  <g fill="none" stroke-linecap="round" stroke-linejoin="round">
    <rect x="30" y="60" width="96" height="56" rx="10" fill="var(--surface)" stroke="var(--accent)" stroke-width="2"/>
    <text x="78" y="93" text-anchor="middle" font-family="'JetBrains Mono',monospace" font-size="15" fill="var(--accent)" stroke="none">A</text>
    <rect x="354" y="60" width="96" height="56" rx="10" fill="var(--surface)" stroke="var(--accent)" stroke-width="2"/>
    <text x="402" y="93" text-anchor="middle" font-family="'JetBrains Mono',monospace" font-size="15" fill="var(--accent)" stroke="none">B</text>
    <path d="M 126 88 C 220 88 260 88 354 88" stroke="var(--muted)" stroke-width="2" stroke-dasharray="5 6"/>
    <text x="240" y="78" text-anchor="middle" font-family="'JetBrains Mono',monospace" font-size="12" fill="var(--muted)" stroke="none">http/2</text>
    <rect x="30" y="168" width="96" height="56" rx="10" fill="var(--surface)" stroke="var(--accent)" stroke-width="2"/>
    <text x="78" y="201" text-anchor="middle" font-family="'JetBrains Mono',monospace" font-size="15" fill="var(--accent)" stroke="none">A</text>
    <rect x="354" y="168" width="96" height="56" rx="10" fill="var(--surface)" stroke="var(--accent)" stroke-width="2"/>
    <text x="402" y="201" text-anchor="middle" font-family="'JetBrains Mono',monospace" font-size="15" fill="var(--accent)" stroke="none">B</text>
    <rect x="196" y="186" width="20" height="20" rx="4" fill="var(--accent)" fill-opacity="0.15" stroke="var(--accent)" stroke-width="1.6"/>
    <rect x="222" y="186" width="20" height="20" rx="4" fill="var(--accent)" fill-opacity="0.4" stroke="var(--accent)" stroke-width="1.6"/>
    <rect x="248" y="186" width="20" height="20" rx="4" fill="var(--accent)" fill-opacity="0.15" stroke="var(--accent)" stroke-width="1.6"/>
    <rect x="274" y="186" width="20" height="20" rx="4" fill="var(--accent)" fill-opacity="0.4" stroke="var(--accent)" stroke-width="1.6"/>
    <path d="M 126 196 L 190 196 M 300 196 L 354 196" stroke="var(--accent)" stroke-width="2"/>
  </g>
</svg>
