<svg class="post-illu" viewBox="0 0 480 260" xmlns="http://www.w3.org/2000/svg" preserveAspectRatio="xMidYMid meet" aria-hidden="true" focusable="false">
  <rect width="480" height="260" rx="0" fill="var(--accent)" opacity="0.05"/>
  <g fill="none" stroke-linecap="round" stroke-linejoin="round">
    <rect x="28" y="100" width="96" height="60" rx="10" fill="var(--surface)" stroke="var(--accent)" stroke-width="2"/>
    <text x="76" y="135" text-anchor="middle" font-family="'JetBrains Mono',monospace" font-size="15" fill="var(--accent)" stroke="none">svc A</text>
    <line x1="128" y1="130" x2="176" y2="130" stroke="var(--accent)" stroke-width="2"/>
    <path d="M 176 130 l -7 -4 m 7 4 l -7 4" stroke="var(--accent)" stroke-width="2"/>
    <rect x="182" y="120" width="20" height="20" rx="4" fill="var(--accent)" fill-opacity="0.15" stroke="var(--accent)" stroke-width="1.6"/>
    <rect x="206" y="120" width="20" height="20" rx="4" fill="var(--accent)" fill-opacity="0.4" stroke="var(--accent)" stroke-width="1.6"/>
    <rect x="230" y="120" width="20" height="20" rx="4" fill="var(--accent)" fill-opacity="0.15" stroke="var(--accent)" stroke-width="1.6"/>
    <rect x="254" y="120" width="20" height="20" rx="4" fill="var(--accent)" fill-opacity="0.4" stroke="var(--accent)" stroke-width="1.6"/>
    <rect x="278" y="120" width="20" height="20" rx="4" fill="var(--accent)" fill-opacity="0.15" stroke="var(--accent)" stroke-width="1.6"/>
    <line x1="300" y1="130" x2="350" y2="130" stroke="var(--accent)" stroke-width="2"/>
    <path d="M 350 130 l -7 -4 m 7 4 l -7 4" stroke="var(--accent)" stroke-width="2"/>
    <rect x="354" y="100" width="96" height="60" rx="10" fill="var(--surface)" stroke="var(--accent)" stroke-width="2"/>
    <text x="402" y="135" text-anchor="middle" font-family="'JetBrains Mono',monospace" font-size="15" fill="var(--accent)" stroke="none">svc B</text>
    <path d="M 300 150 q -60 40 -118 0" stroke="var(--muted)" stroke-width="1.6" stroke-dasharray="4 6"/>
  </g>
</svg>
