<?xml version="1.0" encoding="utf-8"?>
<svg version="1.1" id="Layer_1"
	xmlns="http://www.w3.org/2000/svg" xmlns:xlink="http://www.w3.org/1999/xlink"
	x="0px" y="0px"
	viewBox="245 177 355 115"
	xml:space="preserve"
>
<g>
	<path d="M371,187.5v9.8h-24.5c-1.5-10.4-10.4-18.4-21.2-18.4c-11.8,0-21.4,9.6-21.4,21.4c0,11.8,9.6,21.4,21.4,21.4
		c10.8,0,19.7-8,21.2-18.4H371v26.4h-82.8c-1.5-10.4-10.4-18.4-21.2-18.4c-11.8,0-21.4,9.6-21.4,21.4c0,11.8,9.6,21.4,21.4,21.4
		c10.8,0,19.7-8,21.2-18.4H371v29.7h-41.2c-1.5-10.4-10.4-18.4-21.2-18.4c-11.8,0-21.4,9.6-21.4,21.4c0,11.8,9.6,21.4,21.4,21.4
		c10.8,0,19.7-8,21.2-18.4H371v14.3h142.3v-98.1H371z M325.3,215.7c-8.5,0-15.4-6.9-15.4-15.4c0-8.5,6.9-15.4,15.4-15.4
		c8.5,0,15.4,6.9,15.4,15.4C340.7,208.8,333.8,215.7,325.3,215.7z M267,248.1c-8.5,0-15.4-6.9-15.4-15.4c0-8.5,6.9-15.4,15.4-15.4
		c8.5,0,15.4,6.9,15.4,15.4C282.4,241.2,275.5,248.1,267,248.1z M308.6,283.7c-8.5,0-15.4-6.9-15.4-15.4c0-8.5,6.9-15.4,15.4-15.4
		c8.5,0,15.4,6.9,15.4,15.4C324,276.8,317.1,283.7,308.6,283.7z M411.6,271.7h-15.1v-72.5h15.1V271.7z M506.8,271.7h-13.2v-44.5
		c0-0.9,0-1.9,0.1-2.9c0-1.1,0.1-2.2,0.2-3.3l-20.7,39.3c-1.1,2.2-2.9,3.2-5.2,3.2h-2.1c-1.2,0-2.2-0.3-3.1-0.8
		c-0.9-0.5-1.6-1.4-2.1-2.4l-20.8-39.4c0.1,1.1,0.2,2.2,0.3,3.3s0.1,2.1,0.1,3v44.5h-13.2v-72.5h11.4c0.6,0,1.2,0,1.7,0
		c0.5,0,0.9,0.1,1.3,0.3c0.4,0.1,0.7,0.4,1,0.7c0.3,0.3,0.6,0.8,0.9,1.3l20.3,38.7c0.6,1.2,1.2,2.4,1.7,3.6s1.1,2.5,1.6,3.8
		c0.5-1.3,1-2.6,1.6-3.9c0.6-1.3,1.2-2.5,1.8-3.6l20.1-38.5c0.3-0.6,0.6-1,0.9-1.3c0.3-0.3,0.7-0.5,1.1-0.7c0.4-0.2,0.8-0.2,1.3-0.3
		c0.5,0,1.1,0,1.7,0h11.4V271.7z"/>
	<path d="M592,235.4c0,3.2-0.3,6.3-1,9.2c-0.6,2.9-1.6,5.7-2.8,8.2c-1.2,2.6-2.8,4.9-4.6,7.1c-1.8,2.1-3.8,4.1-6.1,5.7l18.4,20
		h-12.3c-1.8,0-3.4-0.2-4.8-0.7c-1.4-0.5-2.7-1.3-3.9-2.6l-9.8-10.9c-3.2,0.8-6.6,1.1-10.1,1.1c-5.6,0-10.6-0.9-15.2-2.8
		c-4.6-1.9-8.5-4.5-11.7-7.8c-3.3-3.3-5.8-7.2-7.6-11.7c-1.8-4.5-2.7-9.4-2.7-14.7c0-5.3,0.9-10.2,2.7-14.7
		c1.8-4.5,4.3-8.4,7.6-11.7c3.3-3.3,7.2-5.9,11.7-7.8c4.6-1.9,9.6-2.8,15.2-2.8c5.6,0,10.6,0.9,15.2,2.8c4.6,1.9,8.5,4.5,11.7,7.8
		c3.2,3.3,5.8,7.2,7.5,11.7S592,230.2,592,235.4z M576.7,235.4c0-3.8-0.5-7.2-1.5-10.2c-1-3-2.4-5.6-4.3-7.7
		c-1.9-2.1-4.2-3.7-6.8-4.8c-2.7-1.1-5.7-1.7-9.1-1.7c-3.4,0-6.4,0.6-9.1,1.7c-2.7,1.1-5,2.7-6.9,4.8c-1.9,2.1-3.3,4.7-4.3,7.7
		c-1,3-1.5,6.4-1.5,10.2c0,3.8,0.5,7.3,1.5,10.3c1,3,2.4,5.6,4.3,7.7c1.9,2.1,4.2,3.7,6.9,4.8c2.7,1.1,5.7,1.7,9.1,1.7
		c3.4,0,6.4-0.6,9.1-1.7c2.7-1.1,5-2.7,6.8-4.8c1.9-2.1,3.3-4.7,4.3-7.7C576.2,242.7,576.7,239.2,576.7,235.4z"/>
</g>
</svg>
